HIERARCHY
ROOT SpineBase
{
  OFFSET 0.000000 0.000000 0.000000
  CHANNELS 6 Xposition Yposition Zposition Zrotation Xrotation Yrotation
  JOINT SpineMid
  {
    OFFSET 0.000000 34.050776 0.000000
    CHANNELS 3 Zrotation Xrotation Yrotation
    JOINT SpineShoulder
    {
      OFFSET -0.228155 25.207099 -0.843779
      CHANNELS 3 Zrotation Xrotation Yrotation
      JOINT Neck
      {
        OFFSET -0.115661 8.332678 -0.622559
        CHANNELS 3 Zrotation Xrotation Yrotation
        JOINT Head
        {
          OFFSET 7.186697 12.759135 -1.052336
          CHANNELS 3 Zrotation Xrotation Yrotation
          End Site
          {
            OFFSET 0 0 0
          }
        }
      }
      JOINT ShoulderLeft
      {
        OFFSET -14.656655 -2.708945 -10.890636
        CHANNELS 3 Zrotation Xrotation Yrotation
        JOINT ElbowLeft
        {
          OFFSET -11.021291 -27.329440 -3.169227
          CHANNELS 3 Zrotation Xrotation Yrotation
          JOINT WristLeft
          {
            OFFSET -0.474187 -24.308416 -4.816200
            CHANNELS 3 Zrotation Xrotation Yrotation
            JOINT HandLeft
            {
              OFFSET -0.979230 -7.855660 -0.920098
              CHANNELS 3 Zrotation Xrotation Yrotation
              JOINT HandTipLeft
              {
                OFFSET 0.081152 -6.870822 -0.441148
                CHANNELS 3 Zrotation Xrotation Yrotation
                End Site
                {
                  OFFSET 0 0 0
                }
              }
              JOINT ThumbLeft
              {
                OFFSET 2.619263 0.434861 -2.718724
                CHANNELS 3 Zrotation Xrotation Yrotation
                End Site
                {
                  OFFSET 0 0 0
                }
              }
            }
          }
        }
      }
      JOINT ShoulderRight
      {
        OFFSET 15.023662 -5.467200 10.702074
        CHANNELS 3 Zrotation Xrotation Yrotation
        JOINT ElbowRight
        {
          OFFSET -2.724034 -28.981965 -5.472592
          CHANNELS 3 Zrotation Xrotation Yrotation
          JOINT WristRight
          {
            OFFSET 0.254352 -28.853477 -3.333742
            CHANNELS 3 Zrotation Xrotation Yrotation
            JOINT HandRight
            {
              OFFSET 1.467701 -10.282625 0.352708
              CHANNELS 3 Zrotation Xrotation Yrotation
              JOINT HandTipRight
              {
                OFFSET 0.495664 -9.366983 0.993956
                CHANNELS 3 Zrotation Xrotation Yrotation
                End Site
                {
                  OFFSET 0 0 0
                }
              }
              JOINT ThumbRight
              {
                OFFSET -5.044529 0.189202 -4.854048
                CHANNELS 3 Zrotation Xrotation Yrotation
                End Site
                {
                  OFFSET 0 0 0
                }
              }
            }
          }
        }
      }
    }
  }
  JOINT HipLeft
  {
    OFFSET -6.882137 2.087754 -7.985837
    CHANNELS 3 Zrotation Xrotation Yrotation
    JOINT KneeLeft
    {
      OFFSET -6.706771 -36.251605 1.011748
      CHANNELS 3 Zrotation Xrotation Yrotation
      JOINT AnkleLeft
      {
        OFFSET -4.082525 -34.962850 12.407744
        CHANNELS 3 Zrotation Xrotation Yrotation
        JOINT FootLeft
        {
          OFFSET 6.589068 -4.001252 -11.883348
          CHANNELS 3 Zrotation Xrotation Yrotation
          End Site
          {
            OFFSET 0 0 0
          }
        }
      }
    }
  }
  JOINT HipRight
  {
    OFFSET 5.999894 0.333603 0.577927
    CHANNELS 3 Zrotation Xrotation Yrotation
    JOINT KneeRight
    {
      OFFSET 2.679906 -36.490983 5.800385
      CHANNELS 3 Zrotation Xrotation Yrotation
      JOINT AnkleRight
      {
        OFFSET -4.055001 -36.205499 12.578434
        CHANNELS 3 Zrotation Xrotation Yrotation
        JOINT FootRight
        {
          OFFSET 6.774616 -3.658329 -12.637019
          CHANNELS 3 Zrotation Xrotation Yrotation
          End Site
          {
            OFFSET 0 0 0
          }
        }
      }
    }
  }
}
MOTION
Frames: 14
Frame Time: 0.033333
37.650407 79.111031 299.721852 0.501260 -0.604623 -28.515652 -0.570039 -0.636005 28.502416 -0.111167 -0.195883 -0.027660 5.466386 -0.989887 1.664834 0.000000 0.000000 0.000000 1.554628 -2.142717 1.232493 1.128473 2.003837 -1.668765 0.703548 -5.569977 1.068058 3.144694 10.262140 -1.567561 0.000000 0.000000 0.000000 0.000000 0.000000 0.000000 8.818301 -18.333655 1.636977 -7.014818 13.713053 0.552745 -19.628668 34.037190 10.583898 10.575715 10.362224 1.160154 0.000000 0.000000 0.000000 0.000000 0.000000 0.000000 -3.055402 0.362976 28.261049 0.617564 1.447109 -0.506332 -0.618414 -1.773078 8.226437 0.000000 0.000000 0.000000 -3.793102 2.000604 28.500781 -1.547260 -3.303817 -1.204383 0.661254 -1.095806 8.712435 0.000000 0.000000 0.000000
37.720396 79.099220 299.690755 0.122575 -0.871146 -27.821656 -0.533276 -0.616930 27.793922 -0.074268 -0.190681 -0.040493 5.805121 -1.399339 2.089553 0.000000 0.000000 0.000000 1.444917 -2.535971 1.567828 0.505297 1.885314 -1.729464 1.545492 -5.829686 0.977878 3.394537 11.260147 -1.825356 0.000000 0.000000 0.000000 0.000000 0.000000 0.000000 8.985909 -18.350724 1.675031 -7.315156 12.981348 0.667891 -21.099378 40.203076 13.399120 15.410513 7.142896 2.725376 0.000000 0.000000 0.000000 0.000000 0.000000 0.000000 -2.781426 0.920010 27.575984 0.422374 1.483508 -0.542196 -0.704265 -1.913521 8.776104 0.000000 0.000000 0.000000 -3.702398 2.872626 27.887652 -1.543952 -3.997067 -1.215320 0.433344 -0.873931 9.179891 0.000000 0.000000 0.000000
37.797001 79.081231 299.671134 -0.210218 -1.097487 -27.222076 -0.477497 -0.563613 27.181369 -0.035316 -0.177188 -0.049529 6.455759 -1.672004 2.422499 0.000000 0.000000 0.000000 1.467354 -3.183442 1.950051 -0.183547 2.112598 -1.864675 2.219387 -6.947216 1.022057 3.838660 11.865009 -2.234342 0.000000 0.000000 0.000000 0.000000 0.000000 0.000000 9.198612 -18.206751 1.670188 -7.749920 12.194232 0.835491 -62.697036 66.383190 56.159231 23.569158 -23.472281 7.969637 0.000000 0.000000 0.000000 0.000000 0.000000 0.000000 -2.475517 1.338994 26.992138 0.121061 1.594325 -0.627208 -0.614478 -2.058877 9.115141 0.000000 0.000000 0.000000 -3.579014 3.530520 27.342666 -1.548523 -4.450547 -1.226261 0.310298 -0.746266 9.417093 0.000000 0.000000 0.000000
37.893273 79.045038 299.634909 -0.437713 -1.283925 -26.689562 -0.388499 -0.467861 26.641269 0.012900 -0.156740 -0.051068 6.950665 -1.897615 2.679035 0.000000 0.000000 0.000000 1.499448 -3.917429 2.311111 -0.725570 2.561270 -2.051024 3.624873 -7.133994 0.884158 3.816999 12.098687 -2.386378 0.000000 0.000000 0.000000 0.000000 0.000000 0.000000 9.671790 -18.372072 1.689743 -8.524694 11.965712 1.113407 -31.447605 66.195407 31.448957 11.409001 -19.639690 0.230508 0.000000 0.000000 0.000000 0.000000 0.000000 0.000000 -2.256851 1.649109 26.471115 -0.148187 1.674413 -0.705137 -0.451658 -2.165092 9.194850 0.000000 0.000000 0.000000 -3.477298 3.749521 26.804810 -1.473883 -4.457065 -1.203234 0.297058 -0.733790 9.420534 0.000000 0.000000 0.000000
38.002755 79.005469 299.620045 -0.605474 -1.397179 -26.205581 -0.345355 -0.407550 26.150594 0.019812 -0.154293 -0.055257 7.454471 -2.018912 2.846031 0.000000 0.000000 0.000000 1.607841 -4.747854 2.693016 -1.219701 3.066031 -2.260274 5.382986 -9.139029 1.025789 2.032703 12.093379 -2.365718 0.000000 0.000000 0.000000 0.000000 0.000000 0.000000 10.058936 -18.171544 1.647416 -9.067325 11.868260 1.317530 -39.910073 77.801589 45.755196 2.439458 -30.118686 -6.372921 0.000000 0.000000 0.000000 0.000000 0.000000 0.000000 -1.971596 1.837731 26.004074 -0.547586 1.714756 -0.807799 -0.221267 -2.159262 9.300594 0.000000 0.000000 0.000000 -3.271281 3.807608 26.307568 -1.592449 -4.280922 -1.234220 0.398611 -0.775428 9.476559 0.000000 0.000000 0.000000
38.114530 78.965917 299.611862 -0.726655 -1.456930 -25.912259 -0.300140 -0.344571 25.853144 0.032033 -0.145308 -0.056622 7.611949 -2.262725 3.024551 0.000000 0.000000 0.000000 1.710937 -5.443271 2.986639 -1.422471 3.718373 -2.474541 7.805528 -8.984484 0.800308 -1.854132 11.998401 -1.395228 0.000000 0.000000 0.000000 0.000000 0.000000 0.000000 10.254282 -18.053561 1.620879 -9.283417 12.412010 1.402457 -16.505028 59.289963 18.297839 5.430639 -9.713212 -2.887586 0.000000 0.000000 0.000000 0.000000 0.000000 0.000000 -1.651188 1.953230 25.728449 -1.027944 1.852867 -0.931908 0.051591 -2.211549 9.408180 0.000000 0.000000 0.000000 -3.079436 3.807838 26.002488 -1.844015 -4.154611 -1.311876 0.615738 -0.767871 9.548978 0.000000 0.000000 0.000000
38.239490 78.923035 299.603702 -0.787677 -1.469516 -25.678420 -0.270060 -0.292407 25.618006 0.039161 -0.136293 -0.056317 7.618382 -2.568726 3.204886 0.000000 0.000000 0.000000 1.780834 -5.990853 3.198991 -1.305332 4.442756 -2.710456 9.891149 -7.868200 0.435214 -4.587211 10.439809 -0.591190 0.000000 0.000000 0.000000 0.000000 0.000000 0.000000 10.393879 -18.086087 1.620328 -9.454401 12.534264 1.465199 -27.281641 61.508692 26.236309 7.885462 -10.443855 -2.177336 0.000000 0.000000 0.000000 0.000000 0.000000 0.000000 -1.370319 2.006136 25.509179 -1.587426 1.933057 -1.075683 0.423529 -2.204422 9.493420 0.000000 0.000000 0.000000 -2.932829 3.709374 25.749921 -2.030911 -4.001108 -1.364357 0.803430 -0.756940 9.559463 0.000000 0.000000 0.000000
38.368444 78.883005 299.543937 -0.816241 -1.473694 -25.359806 -0.240129 -0.258047 25.299267 0.046041 -0.136903 -0.055250 7.452942 -2.911510 3.399358 0.000000 0.000000 0.000000 1.774527 -6.304796 3.323432 -0.966565 4.997590 -2.930302 11.641503 -5.713554 -0.146563 -6.558312 9.780543 0.034344 0.000000 0.000000 0.000000 0.000000 0.000000 0.000000 10.363837 -18.389702 1.677066 -9.489887 12.816226 1.476397 -24.299082 57.255038 22.327021 5.724709 -1.197889 -2.776078 0.000000 0.000000 0.000000 0.000000 0.000000 0.000000 -1.100248 2.034447 25.206260 -2.196646 2.111582 -1.241794 0.817131 -2.276776 9.682850 0.000000 0.000000 0.000000 -2.799332 3.523891 25.401888 -2.255273 -3.807386 -1.425553 1.034447 -0.711229 9.667212 0.000000 0.000000 0.000000
38.486937 78.852298 299.450374 -0.848418 -1.440674 -24.987847 -0.241692 -0.239191 24.926676 0.041549 -0.134286 -0.056267 7.451230 -3.271154 3.598878 0.000000 0.000000 0.000000 1.732065 -6.353124 3.329006 -0.369291 5.318507 -3.108402 13.385421 -3.616082 -0.760437 -8.853709 8.027031 0.670532 0.000000 0.000000 0.000000 0.000000 0.000000 0.000000 10.197206 -18.767103 1.757703 -9.263654 13.232727 1.391436 -8.836443 37.973241 8.023612 0.025084 19.341098 -1.398961 0.000000 0.000000 0.000000 0.000000 0.000000 0.000000 -0.797112 2.018300 24.851530 -2.913212 2.351143 -1.446392 1.274639 -2.373155 10.065362 0.000000 0.000000 0.000000 -2.659835 3.260262 24.990777 -2.405359 -3.554726 -1.459572 1.194152 -0.670736 9.916989 0.000000 0.000000 0.000000
38.602817 78.833777 299.327930 -0.871260 -1.386317 -24.399534 -0.245664 -0.231718 24.338149 0.034420 -0.133942 -0.057341 7.588595 -3.563529 3.767895 0.000000 0.000000 0.000000 1.659253 -6.225748 3.259613 0.370089 5.744415 -3.260715 14.687450 -1.057459 -1.492344 -9.306015 6.114529 0.980043 0.000000 0.000000 0.000000 0.000000 0.000000 0.000000 9.906882 -19.069275 1.826995 -9.003740 13.589582 1.298999 -7.619130 33.189938 6.469879 -2.714272 28.043899 -0.162915 0.000000 0.000000 0.000000 0.000000 0.000000 0.000000 -0.603197 1.986413 24.270896 -3.560460 2.597889 -1.654060 1.730000 -2.514709 10.607826 0.000000 0.000000 0.000000 -2.532157 2.874194 24.344678 -2.418653 -3.142093 -1.445521 1.252058 -0.688907 10.294986 0.000000 0.000000 0.000000
38.712481 78.818822 299.174712 -0.925528 -1.324946 -23.554081 -0.257177 -0.231110 23.490846 0.026175 -0.133307 -0.060200 8.004682 -3.811691 3.940865 0.000000 0.000000 0.000000 1.559714 -5.835100 3.087390 1.217727 5.858704 -3.330497 15.743809 1.577051 -2.277775 -10.272102 3.657097 1.386588 0.000000 0.000000 0.000000 0.000000 0.000000 0.000000 9.632729 -19.300395 1.884668 -8.845918 13.782588 1.249756 -6.850220 28.923201 5.295944 -3.855239 32.121594 1.042907 0.000000 0.000000 0.000000 0.000000 0.000000 0.000000 -0.458929 1.946375 23.428286 -3.951638 2.686085 -1.785166 1.936272 -2.515152 11.315236 0.000000 0.000000 0.000000 -2.363264 2.292819 23.409807 -2.288240 -2.471154 -1.370721 1.187552 -0.764042 10.908240 0.000000 0.000000 0.000000
38.805317 78.824612 299.017572 -0.994248 -1.267193 -22.592455 -0.281842 -0.234527 22.526376 0.013924 -0.131874 -0.064506 8.702543 -3.870871 4.030222 0.000000 0.000000 0.000000 1.496460 -5.383018 2.894096 1.965889 6.251966 -3.348108 16.704938 3.483377 -2.897257 -10.671960 2.178134 1.661278 0.000000 0.000000 0.000000 0.000000 0.000000 0.000000 9.452448 -19.410966 1.919037 -8.935802 13.745891 1.299880 -7.456796 28.222205 5.349553 -5.287682 32.918435 1.537604 0.000000 0.000000 0.000000 0.000000 0.000000 0.000000 -0.411884 1.904984 22.463016 -4.041377 2.699241 -1.838930 1.896695 -2.481227 12.092955 0.000000 0.000000 0.000000 -2.269175 1.806011 22.366663 -2.094847 -1.950726 -1.289941 1.054843 -0.791755 11.658287 0.000000 0.000000 0.000000
38.883051 78.856072 298.885845 -1.051370 -1.226647 -21.568162 -0.308530 -0.240425 21.499425 0.001854 -0.131915 -0.068572 9.536313 -3.732048 4.021001 0.000000 0.000000 0.000000 1.619548 -5.129107 2.777520 2.416029 7.410494 -3.409640 17.520176 4.012323 -3.092239 -10.602537 1.495509 1.830607 0.000000 0.000000 0.000000 0.000000 0.000000 0.000000 9.042899 -19.501175 1.955651 -8.542132 12.825998 1.147081 -12.457732 39.638885 10.022215 0.503540 17.353102 -1.301375 0.000000 0.000000 0.000000 0.000000 0.000000 0.000000 -0.521129 1.896856 21.423118 -3.671531 2.488050 -1.753599 1.448455 -2.311159 12.914961 0.000000 0.000000 0.000000 -2.339232 1.416344 21.262201 -1.729746 -1.671463 -1.173100 0.787402 -0.713418 12.563947 0.000000 0.000000 0.000000
38.962963 78.902219 298.781441 -1.129387 -1.222747 -20.541753 -0.339041 -0.247477 20.468759 -0.007885 -0.134280 -0.073789 10.339183 -3.732416 4.117803 0.000000 0.000000 0.000000 1.836504 -5.073545 2.755042 2.684047 8.841398 -3.534509 18.333552 3.376145 -2.917572 -10.173206 2.819049 1.791970 0.000000 0.000000 0.000000 0.000000 0.000000 0.000000 9.176860 -19.406263 1.946253 -9.215350 12.246088 1.410006 -15.907729 45.568521 13.589194 5.349253 1.232838 -1.960772 0.000000 0.000000 0.000000 0.000000 0.000000 0.000000 -0.734847 1.957710 20.370984 -2.961860 2.145956 -1.566610 0.711485 -2.087145 13.755753 0.000000 0.000000 0.000000 -2.560227 1.236036 20.166817 -1.290507 -1.763399 -1.059154 0.483899 -0.483331 13.575593 0.000000 0.000000 0.000000
